<?xml version="1.0" standalone="no"?>
<!DOCTYPE svg PUBLIC "-//W3C//DTD SVG 20010904//EN"
 "http://www.w3.org/TR/2001/REC-SVG-20010904/DTD/svg10.dtd">
<svg version="1.0" xmlns="http://www.w3.org/2000/svg"
 width="458.000000pt" height="429.000000pt" viewBox="0 0 458.000000 429.000000"
 preserveAspectRatio="xMidYMid meet">

<g transform="translate(0.000000,429.000000) scale(0.100000,-0.100000)"
fill="#000000" stroke="none">
<path d="M914 4270 c-17 -4 -35 -10 -41 -13 -6 -4 -9 -603 -9 -1684 l1 -1678
110 -2 c414 -8 629 -48 835 -154 113 -58 293 -189 343 -251 39 -47 87 -142 87
-171 0 -23 26 -33 46 -16 8 7 25 31 36 53 82 163 334 359 559 436 208 72 280
83 554 86 l250 3 -3 1688 c-2 1103 -7 1691 -13 1698 -12 12 -495 14 -609 3
-156 -16 -359 -91 -505 -187 -76 -50 -217 -188 -251 -246 -14 -25 -27 -45 -29
-45 -2 0 -21 25 -41 56 -41 62 -165 176 -252 231 -141 90 -347 166 -513 187
-109 15 -500 19 -555 6z m484 -316 c146 -25 343 -87 425 -134 91 -52 131 -89
223 -207 l74 -95 -2 -446 -3 -447 -450 -2 c-247 -2 -458 -4 -467 -7 -17 -4
-18 34 -18 681 l0 686 63 -7 c34 -3 104 -13 155 -22z m1972 -661 l0 -678 -462
3 c-255 1 -469 5 -476 7 -10 4 -12 96 -10 452 l3 448 38 57 c62 93 167 189
256 236 174 92 392 149 579 151 l72 1 0 -677z m-1250 -1723 c0 -401 -2 -730
-5 -730 -2 0 -35 23 -72 51 -225 168 -488 267 -768 287 l-90 7 -3 558 -2 557
470 0 470 0 0 -730z m1244 720 c2 -3 6 -253 7 -555 l3 -550 -70 -8 c-362 -40
-621 -148 -840 -350 l-32 -29 -6 59 c-4 32 -5 370 -4 751 l3 693 467 -3 c256
-2 469 -5 472 -8z"/>
<path d="M575 4205 c-97 -25 -89 1 -81 -249 3 -122 6 -879 6 -1684 l0 -1463
87 3 88 3 5 1695 c3 1124 2 1697 -5 1702 -13 10 -40 8 -100 -7z"/>
<path d="M3882 4212 c-10 -7 -12 -333 -12 -1614 0 -883 3 -1647 6 -1696 l7
-91 84 -3 c49 -2 88 1 91 7 4 6 7 728 8 1605 0 877 4 1630 8 1672 l8 77 -29
14 c-26 14 -120 37 -146 37 -7 0 -18 -4 -25 -8z"/>
<path d="M1020 714 c-225 -12 -403 -27 -478 -39 -48 -8 -104 -15 -125 -15 -57
0 -77 -14 -77 -56 0 -56 24 -92 68 -101 59 -11 242 -9 436 6 215 17 567 10
666 -13 146 -34 346 -116 396 -164 34 -32 60 -42 116 -43 39 0 48 -3 33 -9
-19 -8 -19 -9 2 -9 12 -1 33 3 47 9 22 8 26 16 26 48 0 43 -24 70 -142 161
-135 103 -272 159 -485 201 -107 21 -332 32 -483 24z"/>
<path d="M3281 709 c-101 -5 -168 -14 -261 -37 -200 -49 -292 -89 -455 -202
-95 -66 -135 -103 -135 -125 0 -29 46 -65 83 -65 37 0 127 28 127 39 0 8 88
70 127 90 36 18 184 69 250 86 156 39 462 44 883 14 175 -12 297 -16 302 -11
11 11 30 140 22 153 -3 5 -21 9 -40 9 -19 0 -98 9 -177 20 -162 22 -450 42
-533 38 -31 -2 -118 -6 -193 -9z"/>
</g>
</svg>
